<svg xmlns="http://www.w3.org/2000/svg" viewBox="0 0 230.42 61.1"><defs><style>.a{fill:#6ca543;}.b{fill:#6ba539;}.c{fill:#fff;}.d{fill:#929497;}</style></defs><title>SSD_Logo-web</title><rect class="a" x="0.21" y="5.02" width="84.31" height="1.88"/><rect class="a" x="145.96" y="5.02" width="84.46" height="1.88"/><rect class="b" x="54.51" y="39.72" width="121.81" height="21.38"/><path class="c" d="M63,52.07h1.8a10.45,10.45,0,0,1,2.09.14,2.35,2.35,0,0,1,1.26.78,2.23,2.23,0,0,1,.49,1.49,2.19,2.19,0,0,1-1.79,2.27,11.08,11.08,0,0,1-2.3.15h-.64v4.2H63Zm.91.89v3.11h1.52a4.17,4.17,0,0,0,1.36-.17,1.34,1.34,0,0,0,.67-.55,1.53,1.53,0,0,0,0-1.67,1.28,1.28,0,0,0-.64-.53A3.92,3.92,0,0,0,65.5,53Z" transform="translate(-2.52 -6.2)"/><path class="c" d="M70.5,52.07h1.79a10.29,10.29,0,0,1,2,.13,2.23,2.23,0,0,1,1.81,2.27,2.38,2.38,0,0,1-.35,1.3,2.18,2.18,0,0,1-1,.85,4.69,4.69,0,0,1-1.78.29l3.26,4.22H75.11l-3.24-4.19h-.51v4.19h-.9Zm.9.89v3.11H73a3.81,3.81,0,0,0,1.34-.18,1.34,1.34,0,0,0,.68-.54,1.58,1.58,0,0,0,.24-.85,1.35,1.35,0,0,0-.25-.82,1.33,1.33,0,0,0-.64-.53A4,4,0,0,0,73,53Z" transform="translate(-2.52 -6.2)"/><path class="c" d="M82.37,51.88a4.64,4.64,0,0,1,3.43,1.36A4.77,4.77,0,0,1,79.06,60a4.55,4.55,0,0,1-1.39-3.33,4.85,4.85,0,0,1,.63-2.41A4.63,4.63,0,0,1,82.37,51.88Zm0,.87a3.82,3.82,0,0,0-3.3,1.93,3.89,3.89,0,0,0-.5,2,3.79,3.79,0,0,0,3.75,3.83h.05A3.92,3.92,0,0,0,84.32,60a3.74,3.74,0,0,0,1.39-1.4,4,4,0,0,0-1.41-5.34,3.94,3.94,0,0,0-1.89-.51Z" transform="translate(-2.52 -6.2)"/><path class="c" d="M88.06,59.45l.77-.46c.54,1,1.16,1.49,1.87,1.49a1.78,1.78,0,0,0,.85-.21,1.59,1.59,0,0,0,.61-.57,1.45,1.45,0,0,0,.21-.76,1.52,1.52,0,0,0-.31-.89,7.26,7.26,0,0,0-1.54-1.44,7.56,7.56,0,0,1-1.41-1.24A2.23,2.23,0,0,1,88.63,54a2.1,2.1,0,0,1,.29-1.07,2,2,0,0,1,.79-.77,2.36,2.36,0,0,1,1.11-.27,2.41,2.41,0,0,1,1.2.31,4.06,4.06,0,0,1,1.21,1.16l-.73.56a3.68,3.68,0,0,0-.87-.89,1.55,1.55,0,0,0-.78-.21,1.24,1.24,0,0,0-.9.33,1.06,1.06,0,0,0-.34.82,1.39,1.39,0,0,0,.12.57,2.2,2.2,0,0,0,.45.6c.12.11.5.41,1.16.9A6.73,6.73,0,0,1,93,57.57a2.45,2.45,0,0,1,.44,1.36,2.29,2.29,0,0,1-.75,1.7,2.53,2.53,0,0,1-1.81.72,2.62,2.62,0,0,1-1.49-.43A4.11,4.11,0,0,1,88.06,59.45Z" transform="translate(-2.52 -6.2)"/><path class="c" d="M94.36,53v-.92H99.3V53h-2V61.1h-.92V53Z" transform="translate(-2.52 -6.2)"/><path class="c" d="M100.59,52.07h.9v3.79h4.6V52.07h.9v9h-.9v-4.3h-4.6v4.36h-.9Z" transform="translate(-2.52 -6.2)"/><path class="c" d="M113.49,51.88a4.73,4.73,0,1,1-3.32,8.1,4.54,4.54,0,0,1-1.38-3.33,4.85,4.85,0,0,1,.63-2.41A4.63,4.63,0,0,1,113.49,51.88Zm0,.87a3.74,3.74,0,0,0-1.9.52,3.65,3.65,0,0,0-1.4,1.41,3.9,3.9,0,0,0-.51,2,3.82,3.82,0,0,0,3.79,3.83h0a3.78,3.78,0,0,0,1.94-.51,3.62,3.62,0,0,0,1.4-1.4,4,4,0,0,0,.5-2,3.77,3.77,0,0,0-.5-1.94,3.85,3.85,0,0,0-3.3-1.91Z" transform="translate(-2.52 -6.2)"/><path class="c" d="M120.11,61.13V52.07H122a9.43,9.43,0,0,1,2.94.33,3.88,3.88,0,0,1,2,1.67,5.26,5.26,0,0,1,.16,5.1,3.79,3.79,0,0,1-1.53,1.52,5.88,5.88,0,0,1-2.62.49Zm.87-.86h1a9.81,9.81,0,0,0,2.59-.23,3,3,0,0,0,1.66-1.19,3.74,3.74,0,0,0,.58-2.11,3.91,3.91,0,0,0-.63-2.23,3.27,3.27,0,0,0-1.76-1.27,11,11,0,0,0-2.8-.25H121Z" transform="translate(-2.52 -6.2)"/><path class="c" d="M133.76,51.88a4.64,4.64,0,0,1,3.47,1.36A4.77,4.77,0,0,1,130.48,60a4.54,4.54,0,0,1-1.38-3.33,4.85,4.85,0,0,1,.63-2.41,4.63,4.63,0,0,1,4.07-2.36Zm0,.87a3.74,3.74,0,0,0-1.9.52,3.65,3.65,0,0,0-1.4,1.41,3.9,3.9,0,0,0-.51,2,3.81,3.81,0,0,0,3.81,3.83A3.78,3.78,0,0,0,135.7,60a3.62,3.62,0,0,0,1.4-1.4,4,4,0,0,0,.5-2,3.77,3.77,0,0,0-.5-1.94,3.65,3.65,0,0,0-1.41-1.4,3.94,3.94,0,0,0-1.89-.51Z" transform="translate(-2.52 -6.2)"/><path class="c" d="M140.39,61.13V52.07h.2l6,6.92V52.07h.89v9h-.2l-6-6.84v6.84Z" transform="translate(-2.52 -6.2)"/><path class="c" d="M148.78,53v-.92h4.95V53h-2V61.1h-.92V53Z" transform="translate(-2.52 -6.2)"/><path class="c" d="M154.9,52.07h.9v9h-.9Z" transform="translate(-2.52 -6.2)"/><path class="c" d="M166.28,53.78l-.72.54a3.88,3.88,0,0,0-1.41-1.16,4.21,4.21,0,0,0-1.81-.39,4,4,0,0,0-2,.51,3.7,3.7,0,0,0-1.43,1.4,3.8,3.8,0,0,0-.51,2,3.72,3.72,0,0,0,1.14,2.76,3.92,3.92,0,0,0,2.85,1.1,4,4,0,0,0,3.17-1.47l.72.54a4.68,4.68,0,0,1-1.69,1.33,5.31,5.31,0,0,1-2.25.46,4.7,4.7,0,0,1-3.74-1.57,4.76,4.76,0,0,1-1.15-3.22,4.49,4.49,0,0,1,1.39-3.33,4.8,4.8,0,0,1,3.48-1.35,4.91,4.91,0,0,1,2.29.5A4.48,4.48,0,0,1,166.28,53.78Z" transform="translate(-2.52 -6.2)"/><path class="c" d="M167.15,59.45l.77-.46c.54,1,1.16,1.49,1.87,1.49a1.78,1.78,0,0,0,.85-.21,1.59,1.59,0,0,0,.61-.57,1.45,1.45,0,0,0,.21-.76,1.52,1.52,0,0,0-.31-.89,7.26,7.26,0,0,0-1.54-1.44,7.75,7.75,0,0,1-1.38-1.24,2.23,2.23,0,0,1-.48-1.38,2.1,2.1,0,0,1,.29-1.07,2,2,0,0,1,.79-.77,2.36,2.36,0,0,1,1.11-.27,2.41,2.41,0,0,1,1.2.31,4.17,4.17,0,0,1,1.17,1.16l-.73.56a3.68,3.68,0,0,0-.87-.89,1.55,1.55,0,0,0-.78-.21,1.24,1.24,0,0,0-.9.33,1.06,1.06,0,0,0-.34.82,1.39,1.39,0,0,0,.12.57,2.2,2.2,0,0,0,.45.6c.12.11.5.41,1.16.9A6.73,6.73,0,0,1,172,57.57a2.45,2.45,0,0,1,.44,1.36,2.29,2.29,0,0,1-.75,1.7,2.53,2.53,0,0,1-1.81.72,2.62,2.62,0,0,1-1.49-.43A4.18,4.18,0,0,1,167.15,59.45Z" transform="translate(-2.52 -6.2)"/><path class="d" d="M2.52,36.07l1.42-.86Q5.44,38,7.4,38A3.36,3.36,0,0,0,9,37.58a2.83,2.83,0,0,0,1.12-1,2.67,2.67,0,0,0,.39-1.4,2.79,2.79,0,0,0-.57-1.64,13.47,13.47,0,0,0-2.86-2.68,14.46,14.46,0,0,1-2.6-2.28A4.17,4.17,0,0,1,3.57,26a3.82,3.82,0,0,1,.53-2,3.72,3.72,0,0,1,1.47-1.42,4.22,4.22,0,0,1,2.06-.48,4.46,4.46,0,0,1,2.2.58A7.57,7.57,0,0,1,12,24.8l-1.36,1A6.64,6.64,0,0,0,9,24.15a2.85,2.85,0,0,0-1.45-.4,2.3,2.3,0,0,0-1.65.62,2,2,0,0,0-.64,1.51,2.29,2.29,0,0,0,.23,1,3.81,3.81,0,0,0,.83,1.19c.69.59,1.41,1.15,2.15,1.67a12.31,12.31,0,0,1,3,2.85,4.67,4.67,0,0,1,.8,2.51,4.3,4.3,0,0,1-1.38,3.16A4.66,4.66,0,0,1,7.58,39.6a4.93,4.93,0,0,1-2.76-.82A7.26,7.26,0,0,1,2.52,36.07Z" transform="translate(-2.52 -6.2)"/><path class="d" d="M15.81,22.49h3.33a19.18,19.18,0,0,1,3.86.25,4.18,4.18,0,0,1,2.33,1.44,4.7,4.7,0,0,1,0,5.51,4.41,4.41,0,0,1-2.44,1.46,21.59,21.59,0,0,1-4.25.27H17.48v7.77H15.81Zm1.67,1.63v5.67h2.83a7.31,7.31,0,0,0,2.5-.31,2.56,2.56,0,0,0,1.25-1,2.72,2.72,0,0,0,.46-1.56,2.6,2.6,0,0,0-.46-1.53,2.43,2.43,0,0,0-1.19-1,7.21,7.21,0,0,0-2.44-.3Z" transform="translate(-2.52 -6.2)"/><path class="d" d="M29.59,22.49h9.57v1.63H31.23v5.24h7.83V31H31.23v6.56h7.83v1.64h-9.5Z" transform="translate(-2.52 -6.2)"/><path class="d" d="M57.59,25.59l-1.31,1a7.09,7.09,0,0,0-2.62-2.15,7.62,7.62,0,0,0-3.35-.74,7.39,7.39,0,0,0-3.7,1A6.82,6.82,0,0,0,44,27.28,7,7,0,0,0,43,30.92,6.83,6.83,0,0,0,45.12,36a7.24,7.24,0,0,0,5.29,2.06,7.45,7.45,0,0,0,5.87-2.75l1.31,1a8.38,8.38,0,0,1-3.11,2.46,9.81,9.81,0,0,1-4.17.87,8.72,8.72,0,0,1-6.92-2.92,8.83,8.83,0,0,1-2.16-6,8.28,8.28,0,0,1,2.57-6.17,8.88,8.88,0,0,1,6.48-2.5,9.52,9.52,0,0,1,4.23.92A8.17,8.17,0,0,1,57.59,25.59Z" transform="translate(-2.52 -6.2)"/><path class="d" d="M60.7,22.49h1.67v16.7H60.7Z" transform="translate(-2.52 -6.2)"/><path class="d" d="M73,22.49l7.79,16.7H79l-2.62-5.5H69.23l-2.61,5.5h-1.9l7.89-16.7Zm-.21,3.58-2.86,6h5.71Z" transform="translate(-2.52 -6.2)"/><path class="d" d="M83.4,22.49h1.66V37.57h6.43v1.62H83.4Z" transform="translate(-2.52 -6.2)"/><path class="d" d="M92.48,24.12V22.49h9.15v1.63H97.9V39.19H96.23V24.12Z" transform="translate(-2.52 -6.2)"/><path class="d" d="M102.72,22.49h1.92l4.27,6.88,4.2-6.88H115l-5.29,8.72v8h-1.64v-8Z" transform="translate(-2.52 -6.2)"/><path class="d" d="M124.23,39.19V22.49h3.46a17.83,17.83,0,0,1,5.44.6,7.22,7.22,0,0,1,3.79,3,9,9,0,0,1,1.37,5,8.75,8.75,0,0,1-1.06,4.39,7.09,7.09,0,0,1-2.82,2.82,10.62,10.62,0,0,1-4.85.91Zm1.6-1.58h1.93a18.43,18.43,0,0,0,4.8-.43,5.59,5.59,0,0,0,3-2.21,6.7,6.7,0,0,0,1-3.9,7.12,7.12,0,0,0-1.17-4.13,5.87,5.87,0,0,0-3.26-2.35,19.47,19.47,0,0,0-5.16-.48h-1.18Z" transform="translate(-2.52 -6.2)"/><path class="d" d="M141.54,22.49h9.57v1.63h-7.88v5.24h7.83V31h-7.83v6.56h7.83v1.64h-9.5Z" transform="translate(-2.52 -6.2)"/><path class="d" d="M154,39.19V22.49h.36l11.12,12.8V22.49h1.64v16.7h-.37l-11-12.65V39.19Z" transform="translate(-2.52 -6.2)"/><path class="d" d="M169.53,24.12V22.49h9.15v1.63H175V39.19h-1.73V24.12Z" transform="translate(-2.52 -6.2)"/><path class="d" d="M180.85,22.49h1.67v16.7h-1.67Z" transform="translate(-2.52 -6.2)"/><path class="d" d="M184.62,36.07l1.42-.86Q187.54,38,189.5,38a3.36,3.36,0,0,0,1.58-.39,2.81,2.81,0,0,0,1.15-1,2.72,2.72,0,0,0-.18-3,13.73,13.73,0,0,0-2.86-2.68,14.13,14.13,0,0,1-2.6-2.28A4.17,4.17,0,0,1,185.7,26a4,4,0,0,1,.52-2,3.79,3.79,0,0,1,1.47-1.42,4.33,4.33,0,0,1,2.06-.51,4.27,4.27,0,0,1,2.21.58,7.57,7.57,0,0,1,2.18,2.15l-1.37,1a6.44,6.44,0,0,0-1.6-1.65,2.85,2.85,0,0,0-1.45-.4,2.3,2.3,0,0,0-1.65.62,2,2,0,0,0-.64,1.51,2.69,2.69,0,0,0,.22,1,4.08,4.08,0,0,0,.83,1.11c.22.22.94.77,2.16,1.67a12.14,12.14,0,0,1,3,2.85,4.6,4.6,0,0,1,.81,2.51,4.3,4.3,0,0,1-1.38,3.16,4.66,4.66,0,0,1-3.35,1.34,4.93,4.93,0,0,1-2.76-.82A7.34,7.34,0,0,1,184.62,36.07Z" transform="translate(-2.52 -6.2)"/><path class="d" d="M196.23,24.12V22.49h9.15v1.63h-3.72V39.19H200V24.12Z" transform="translate(-2.52 -6.2)"/><path class="d" d="M207.91,22.49h3.32a19.06,19.06,0,0,1,3.77.23,4.27,4.27,0,0,1,2.42,1.46,4.15,4.15,0,0,1,.93,2.75,4.42,4.42,0,0,1-.64,2.4,4,4,0,0,1-1.83,1.56,8.42,8.42,0,0,1-3.3.54l6,7.76h-2.05l-6-7.76h-.94v7.76h-1.67Zm1.67,1.63V29.8h2.87a7.17,7.17,0,0,0,2.48-.32,2.56,2.56,0,0,0,1.25-1,2.89,2.89,0,0,0,.45-1.56,2.78,2.78,0,0,0-.46-1.53,2.53,2.53,0,0,0-1.19-1,7.32,7.32,0,0,0-2.46-.3Z" transform="translate(-2.52 -6.2)"/><path class="d" d="M220.61,22.49h1.92l4.27,6.88L231,22.49h1.93l-5.29,8.72v8H226v-8Z" transform="translate(-2.52 -6.2)"/><path class="d" d="M97.09,13.77l.59-.46c.54,1,1.16,1.49,1.87,1.49a1.78,1.78,0,0,0,.85-.21A1.59,1.59,0,0,0,101,14a1.45,1.45,0,0,0,.21-.76,1.52,1.52,0,0,0-.31-.89,7.26,7.26,0,0,0-1.54-1.44A7.56,7.56,0,0,1,98,9.69a2.23,2.23,0,0,1-.48-1.38,2.1,2.1,0,0,1,.29-1.07,2,2,0,0,1,.79-.77,2.36,2.36,0,0,1,1.11-.27,2.41,2.41,0,0,1,1.2.31A4.17,4.17,0,0,1,102,7.67l-.73.56a3.68,3.68,0,0,0-.87-.89,1.56,1.56,0,0,0-.79-.21,1.26,1.26,0,0,0-.89.33,1.06,1.06,0,0,0-.34.82,1.39,1.39,0,0,0,.12.57,2.2,2.2,0,0,0,.45.6c.12.11.5.41,1.16.9a6.73,6.73,0,0,1,1.61,1.54,2.45,2.45,0,0,1,.44,1.36,2.29,2.29,0,0,1-.75,1.7,2.5,2.5,0,0,1-1.81.73,2.71,2.71,0,0,1-1.49-.44A3.88,3.88,0,0,1,97.09,13.77Z" transform="translate(-2.52 -6.2)"/><path class="d" d="M109.58,13.23l.73.38a3.56,3.56,0,0,1-.83,1.13,3.11,3.11,0,0,1-1,.66,3.7,3.7,0,0,1-1.32.22,3.17,3.17,0,0,1-2.55-1.07,3.67,3.67,0,0,1-.14-4.69,3.2,3.2,0,0,1,2.64-1.26,3.27,3.27,0,0,1,2.73,1.3,3.6,3.6,0,0,1,.74,2.28h-6a2.69,2.69,0,0,0,.7,1.89,2.39,2.39,0,0,0,1.78.75,2.85,2.85,0,0,0,1-.18,2.4,2.4,0,0,0,.82-.47A3.79,3.79,0,0,0,109.58,13.23Zm0-1.79a2.63,2.63,0,0,0-.5-1.1,2.29,2.29,0,0,0-.87-.67,2.74,2.74,0,0,0-1.13-.25,2.44,2.44,0,0,0-1.69.64,2.73,2.73,0,0,0-.78,1.38Z" transform="translate(-2.52 -6.2)"/><path class="d" d="M118.78,8.77v6.68h-.85V14.3a3.65,3.65,0,0,1-1.21,1,3.4,3.4,0,0,1-1.47.33,3.25,3.25,0,0,1-2.42-1,3.44,3.44,0,0,1-1-2.5,3.35,3.35,0,0,1,1-2.46,3.29,3.29,0,0,1,2.44-1,3.09,3.09,0,0,1,1.49.35,3.25,3.25,0,0,1,1.16,1.05V8.77Zm-3.43.66a2.58,2.58,0,0,0-2.29,1.34,2.71,2.71,0,0,0,0,2.7,2.67,2.67,0,0,0,1,1,2.53,2.53,0,0,0,1.31.36,2.64,2.64,0,0,0,1.34-.36,2.41,2.41,0,0,0,1-1,2.73,2.73,0,0,0,.34-1.37,2.62,2.62,0,0,0-.76-1.93,2.55,2.55,0,0,0-1.94-.74Z" transform="translate(-2.52 -6.2)"/><path class="d" d="M121.46,6.29h.86V8.77h1.36v.74h-1.36v5.94h-.86V9.51h-1.17V8.77h1.17Z" transform="translate(-2.52 -6.2)"/><path class="d" d="M125.72,6.29h.86V8.77h1.36v.74h-1.36v5.94h-.86V9.51h-1.17V8.77h1.17Z" transform="translate(-2.52 -6.2)"/><path class="d" d="M129.1,6.2H130v9.25h-.86Z" transform="translate(-2.52 -6.2)"/><path class="d" d="M137.36,13.23l.73.38a3.81,3.81,0,0,1-.82,1.13,3.35,3.35,0,0,1-1,.66,3.7,3.7,0,0,1-1.32.22,3.2,3.2,0,0,1-2.56-1.07,3.67,3.67,0,0,1-.14-4.69A3.16,3.16,0,0,1,134.9,8.6a3.26,3.26,0,0,1,2.72,1.3,3.6,3.6,0,0,1,.74,2.28h-6a2.68,2.68,0,0,0,.75,1.9,2.37,2.37,0,0,0,1.77.75,2.85,2.85,0,0,0,1-.18,2.4,2.4,0,0,0,.82-.47A3.68,3.68,0,0,0,137.36,13.23Zm0-1.79a2.63,2.63,0,0,0-.5-1.1,2.29,2.29,0,0,0-.87-.67,2.74,2.74,0,0,0-1.13-.25,2.44,2.44,0,0,0-1.69.64,2.73,2.73,0,0,0-.78,1.38Z" transform="translate(-2.52 -6.2)"/></svg>